#Unknown ASF file
:ROOT_YZX
:FOOT_3DOF
:FULLY-SPECIFIED
:DEGREES
777
root -12.2732 17.4549 46.6387 -0.249859 33.3694 3.37566
lfemur -7.56434 5.32052 -26.8764
ltibia 32.2786
lfoot -18.9037 0 -3.98847
ltoes -10.1551
rfemur -16.8575 -21.0353 7.02806
rtibia 50.5462
rfoot -12.7729 0 -35.0912
rtoes 7.46006
lowerback 10.489 1.84464 0.195692
upperback 3.42617 2.61251 3.19512
thorax -2.44985 1.31384 2.87965
lowerneck -18.7868 9.73339 -9.87488
upperneck 26.463 16.464 2.33048
head 10.6183 6.89516 4.67737
lclavicle 1.39149e-014 -7.95139e-015
lhumerus -34.3792 -1.83856 95.4921
lradius 36.0554
lwrist -2.77218
lhand -7.02257 27.3266
lfingers 7.12502
lthumb 18.8491 56.4334
rclavicle 1.39149e-014 -7.95139e-015
rhumerus -26.3366 -8.05995 -67.8304
rradius 37.4892
rwrist -4.12353
rhand -23.6528 12.6938
rfingers 7.12502
rthumb 2.81265 -17.2674
778
root -12.1193 17.4713 46.6757 -0.7962 37.5345 3.55208
lfemur -6.53628 2.95244 -27.4026
ltibia 31.8431
lfoot -17.9668 0 -5.28393
ltoes -11.9747
rfemur -16.5465 -16.6898 6.42547
rtibia 53.1319
rfoot -12.0501 0 -35.8063
rtoes 21.8127
lowerback 9.61365 1.80866 -1.0528
upperback 3.67419 2.45037 3.63871
thorax -1.77204 1.22661 4.09764
lowerneck -18.6034 10.1138 -9.29969
upperneck 26.1236 16.9778 1.68109
head 10.548 7.13153 4.40532
lclavicle -1.14898e-013 1.27222e-014
lhumerus -33.2781 -1.02559 95.5368
lradius 38.0405
lwrist -0.657914
lhand -7.26571 28.9795
lfingers 7.12502
lthumb 18.6153 58.1088
rclavicle -1.14898e-013 1.27222e-014
rhumerus -27.9171 -8.57087 -68.2093
rradius 37.1996
rwrist -4.73599
rhand -23.5179 13.3365
rfingers 7.12502
rthumb 2.94299 -16.6229
779
root -11.9708 17.4765 46.728 -1.64445 42.0706 3.21996
lfemur -5.30606 0.832947 -27.2927
ltibia 31.7352
lfoot -17.2611 0 -7.27895
ltoes -10.7668
rfemur -15.6599 -14.2436 6.91459
rtibia 55.7747
rfoot -7.93611 0 -29.2623
rtoes 14.5075
lowerback 10.1672 2.06933 -0.627033
upperback 3.03547 2.84901 3.40445
thorax -2.74053 1.44111 3.535
lowerneck -16.3793 10.0111 -7.75377
upperneck 25.4613 16.1492 1.56527
head 10.0736 6.98005 3.86305
lclavicle -4.01545e-014 -2.70347e-014
lhumerus -34.5684 -3.36051 95.5205
lradius 41.4998
lwrist 2.9307
lhand -9.28011 30.5002
lfingers 7.12502
lthumb 16.6768 59.8038
rclavicle -4.01545e-014 -2.70347e-014
rhumerus -31.1486 -11.1625 -68.6513
rradius 35.5886
rwrist -4.49666
rhand -23.6474 14.4154
rfingers 7.12502
rthumb 2.81784 -15.5457
780
root -11.8375 17.4774 46.775 -2.29355 46.4519 3.46255
lfemur -4.36895 -1.16407 -27.8135
ltibia 31.8389
lfoot -16.6511 0 -9.15618
ltoes -8.66443
rfemur -15.8145 -10.6346 7.1423
rtibia 57.1266
rfoot -7.92499 0 -21.2044
rtoes 7.98134
lowerback 9.8956 1.96413 -1.93943
upperback 2.99228 2.59484 3.67263
thorax -2.68598 1.32099 4.60112
lowerneck -15.7039 10.0221 -7.93798
upperneck 24.4715 16.0861 1.47747
head 9.58941 7.00499 3.74546
lclavicle -5.62561e-014 1.74931e-014
lhumerus -34.8059 -2.97878 95.4602
lradius 44.6504
lwrist 4.92027
lhand -11.1293 29.6435
lfingers 7.12502
lthumb 14.8959 59.088
rclavicle -5.62561e-014 1.74931e-014
rhumerus -31.8491 -12.6962 -68.7498
rradius 32.8698
rwrist -1.08803
rhand -22.0729 13.6459
rfingers 7.12502
rthumb 4.33842 -16.2896
781
root -11.7039 17.4702 46.8058 -2.81653 50.8695 3.34036
lfemur -4.01869 -2.58785 -27.9241
ltibia 32.6846
lfoot -15.5928 0 -11.4087
ltoes -7.76458
rfemur -16.0751 -8.37359 8.25559
rtibia 57.9221
rfoot -11.398 0 -14.602
rtoes 0.417594
lowerback 9.41915 1.73458 -2.33735
upperback 3.09199 2.26152 3.74089
thorax -2.30419 1.15036 4.95443
lowerneck -16.2734 9.87188 -7.3428
upperneck 25.5259 15.9537 1.31906
head 10.1485 6.90802 3.70575
lclavicle 7.95139e-015 3.81667e-014
lhumerus -33.747 -4.59559 95.0046
lradius 46.1787
lwrist 7.83657
lhand -10.6704 28.8079
lfingers 7.12502
lthumb 15.338 58.2191
rclavicle 7.95139e-015 3.81667e-014
rhumerus -31.7823 -14.8457 -69.4922
rradius 29.0695
rwrist 1.2997
rhand -22.0537 14.3552
rfingers 7.12502
rthumb 4.35695 -15.5799
782
root -11.5788 17.4805 46.8759 -3.47733 54.8287 3.37409
lfemur -3.10059 -3.9199 -28.0211
ltibia 32.8665
lfoot -14.8536 0 -13.555
ltoes -6.95713
rfemur -16.6739 -6.12932 9.83932
rtibia 58.0162
rfoot -14.5384 0 -10.9495
rtoes -5.46156
lowerback 9.77827 1.94486 -2.39162
upperback 2.70522 2.51173 3.13293
thorax -2.90638 1.28802 4.30015
lowerneck -15.6453 9.4016 -7.02705
upperneck 25.5342 14.9742 2.04541
head 10.0299 6.59608 3.75295
lclavicle -1.96797e-014 -4.77083e-015
lhumerus -32.197 -0.7155 92.7114
lradius 44.7962
lwrist 3.98734
lhand -11.0522 28.3652
lfingers 7.12502
lthumb 14.9702 57.8042
rclavicle -1.96797e-014 -4.77083e-015
rhumerus -33.1777 -18.4764 -70.0271
rradius 26.0021
rwrist 4.49817
rhand -21.6436 14.4371
rfingers 7.12502
rthumb 4.75292 -15.4896
783
root -11.4426 17.4845 46.9295 -3.94166 58.4986 3.49616
lfemur -2.23199 -5.05497 -28.2509
ltibia 32.8069
lfoot -13.622 0 -15.7764
ltoes -3.68426
rfemur -17.8542 -4.37457 11.2543
rtibia 57.3212
rfoot -15.0909 0 -10.9405
rtoes -7.32933
lowerback 8.59587 1.85846 -4.11114
upperback 3.40337 2.29949 3.87965
thorax -1.59675 1.14851 6.13705
lowerneck -15.5796 9.51926 -7.77982
upperneck 25.3509 15.548 1.31355
head 9.94368 6.72729 3.66752
lclavicle 1.59028e-015 -3.18055e-015
lhumerus -30.768 1.44045 92.617
lradius 45.6033
lwrist 3.61087
lhand -11.4462 28.5419
lfingers 7.12502
lthumb 14.5906 58.0087
rclavicle 1.59028e-015 -3.18055e-015
rhumerus -31.6138 -18.835 -70.2119
rradius 23.3661
rwrist 6.14019
rhand -21.1534 14.3131
rfingers 7.12502
rthumb 5.2262 -15.6024
784
root -11.2974 17.5183 46.9485 -3.80507 59.539 1.81766
lfemur -1.87652 -5.47283 -26.572
ltibia 32.8218
lfoot -13.1983 0 -16.4281
ltoes -1.82631
rfemur -19.9077 -0.276785 14.8249
rtibia 55.263
rfoot -14.8661 0 -12.2599
rtoes -11.015
lowerback 8.72123 2.83148 -1.35572
upperback 2.793 3.80507 3.40178
thorax -2.30526 1.9248 3.87731
lowerneck -14.5344 9.20027 -7.86875
upperneck 25.73 14.6888 2.79359
head 9.77104 6.52203 4.02797
lclavicle -5.89397e-014 7.95139e-015
lhumerus -31.184 0.232662 91.1211
lradius 46.121
lwrist 4.96978
lhand -13.0663 28.1401
lfingers 7.12502
lthumb 13.0293 57.7131
rclavicle -5.89397e-014 7.95139e-015
rhumerus -32.9261 -21.0432 -71.126
rradius 21.9141
rwrist 8.11908
rhand -21.3089 14.4134
rfingers 7.12502
rthumb 5.07609 -15.5058
785
root -11.1697 17.5074 47.0042 -4.82819 65.2246 3.43105
lfemur 0.233854 -7.43021 -28.4631
ltibia 31.147
lfoot -11.9114 0 -19.4147
ltoes -0.33866
rfemur -20.4353 -0.395094 13.6159
rtibia 53.2383
rfoot -17.5009 0 -10.7812
rtoes 1.76157
lowerback 9.35312 2.10151 -3.63251
upperback 3.01388 2.61339 2.911
thorax -2.40094 1.33248 4.77668
lowerneck -14.8953 9.37186 -7.45246
upperneck 26.3986 15.0047 2.60673
head 10.1142 6.65102 4.00729
lclavicle 3.35946e-014 9.54166e-015
lhumerus -30.1298 2.60615 89.9527
lradius 45.5431
lwrist 5.76549
lhand -15.1062 29.6165
lfingers 7.12502
lthumb 11.0623 59.3049
rclavicle 3.35946e-014 9.54166e-015
rhumerus -32.5002 -19.9413 -73.1007
rradius 22.5133
rwrist 8.052
rhand -21.3752 14.156
rfingers 7.12502
rthumb 5.01209 -15.7647
786
root -11.0612 17.4123 47.0889 -3.53873 69.5923 12.9097
lfemur 0.587197 -9.07998 -38.7512
ltibia 27.5573
lfoot -7.17168 0 -22.4649
ltoes 8.60407
rfemur -25.131 -0.208234 3.02029
rtibia 52.4006
rfoot -15.7133 0 -8.30736
rtoes -15.1351
lowerback 7.79977 2.31391 -14.3489
upperback 2.70034 2.06678 0.29212
thorax -2.01359 1.05721 8.18731
lowerneck -14.4823 10.1988 -6.60131
upperneck 26.5015 16.1049 2.12751
head 10.1348 7.1918 3.81839
lclavicle -1.02374e-014 -1.90833e-014
lhumerus -29.5122 4.55612 88.7522
lradius 44.7142
lwrist 5.91478
lhand -17.0114 30.18
lfingers 7.12502
lthumb 9.22434 59.9582
rclavicle -1.02374e-014 -1.90833e-014
rhumerus -31.8037 -17.1482 -75.7193
rradius 23.7815
rwrist 5.64248
rhand -21.5776 14.0069
rfingers 7.12502
rthumb 4.81664 -15.9184
